<svg width="24" height="24" viewBox="0 0 24 24" fill="none" xmlns="http://www.w3.org/2000/svg">
<circle cx="12" cy="12" r="12" fill="#D9D9D9"/>
<path d="M11.9998 4.86353C13.0245 4.86353 14.0076 5.27079 14.7322 5.99536C15.4566 6.71984 15.8639 7.7023 15.864 8.72681C15.864 9.75151 15.4568 10.7347 14.7322 11.4592C14.0076 12.1838 13.0245 12.5911 11.9998 12.5911C10.9752 12.591 9.99279 12.1836 9.26831 11.4592C8.54374 10.7347 8.13647 9.75151 8.13647 8.72681C8.13657 7.70223 8.54382 6.71985 9.26831 5.99536C9.9928 5.27087 10.9752 4.86362 11.9998 4.86353ZM11.9998 6.04517C11.2886 6.04526 10.6071 6.32844 10.1042 6.8313C9.60139 7.33415 9.31821 8.01567 9.31812 8.72681C9.31812 9.43807 9.60131 10.1204 10.1042 10.6233C10.6071 11.1261 11.2887 11.4093 11.9998 11.4094C12.711 11.4094 13.3933 11.1262 13.8962 10.6233C14.3992 10.1204 14.6824 9.43807 14.6824 8.72681C14.6823 8.01573 14.399 7.33414 13.8962 6.8313C13.3933 6.32836 12.711 6.04517 11.9998 6.04517Z" fill="black" stroke="black"/>
<path d="M12 0.5C18.3511 0.5 23.5 5.64887 23.5 12C23.5 18.3511 18.3511 23.5 12 23.5C5.64887 23.5 0.5 18.3511 0.5 12C0.5 5.64887 5.64887 0.5 12 0.5ZM12.0713 15.8633C10.7621 15.8622 9.47167 16.1775 8.31055 16.7822C7.1495 17.387 6.15185 18.2636 5.40234 19.3369L5.13672 19.7178L5.49707 20.0107C7.33379 21.5063 9.63049 22.3208 11.999 22.3174L12.001 22.3184L12 22.3174C14.4109 22.321 16.7465 21.4771 18.5977 19.9326L18.9541 19.6357L18.6836 19.2578C17.9308 18.2068 16.9382 17.3501 15.7881 16.7598C14.6382 16.1696 13.3638 15.8623 12.0713 15.8633ZM15.3027 2.22559C13.7506 1.70125 12.095 1.55376 10.4746 1.7959C8.85444 2.03806 7.31532 2.66309 5.98438 3.61816C4.65334 4.57333 3.56847 5.83159 2.82031 7.28906C2.07215 8.74659 1.68185 10.3617 1.68164 12L1.69141 12.4473C1.78632 14.6698 2.58509 16.7115 3.86914 18.3535L4.26855 18.8643L4.66113 18.3486C5.53018 17.208 6.65129 16.2835 7.93652 15.6475C9.22169 15.0115 10.6364 14.6808 12.0703 14.6816H12.0713C13.4867 14.68 14.884 15.0018 16.1562 15.6221C17.4286 16.2424 18.5426 17.1455 19.4131 18.2617L19.8125 18.7734L20.2051 18.2578C21.1984 16.955 21.8673 15.4339 22.1562 13.8213C22.4452 12.2086 22.3463 10.5501 21.8672 8.9834C21.388 7.4168 20.5428 5.98661 19.4014 4.81152C18.2599 3.63648 16.8547 2.74994 15.3027 2.22559Z" fill="black" stroke="black"/>
</svg>
