<svg width="24" height="24" viewBox="0 0 24 24" fill="none" xmlns="http://www.w3.org/2000/svg">
<path d="M7.2 10.7972C7.2 10.479 7.32642 10.1738 7.55147 9.94872C7.77651 9.72368 8.08174 9.59725 8.4 9.59725H15.6C15.9183 9.59725 16.2235 9.72368 16.4485 9.94872C16.6736 10.1738 16.8 10.479 16.8 10.7972C16.8 11.1155 16.6736 11.4207 16.4485 11.6458C16.2235 11.8708 15.9183 11.9972 15.6 11.9972H8.4C8.08174 11.9972 7.77651 11.8708 7.55147 11.6458C7.32642 11.4207 7.2 11.1155 7.2 10.7972ZM8.4 14.3972C8.08174 14.3972 7.77651 14.5237 7.55147 14.7487C7.32642 14.9738 7.2 15.279 7.2 15.5972C7.2 15.9155 7.32642 16.2207 7.55147 16.4458C7.77651 16.6708 8.08174 16.7972 8.4 16.7972H13.2C13.5183 16.7972 13.8235 16.6708 14.0485 16.4458C14.2736 16.2207 14.4 15.9155 14.4 15.5972C14.4 15.279 14.2736 14.9738 14.0485 14.7487C13.8235 14.5237 13.5183 14.3972 13.2 14.3972H8.4ZM1.35205e-06 11.9972C0.000603217 9.36637 0.86578 6.80859 2.46238 4.71757C4.05898 2.62654 6.29852 1.11815 8.83632 0.424549C11.3741 -0.269056 14.0695 -0.109436 16.5077 0.878843C18.9459 1.86712 20.9918 3.62929 22.3304 5.89414C23.6691 8.15899 24.2263 10.801 23.9164 13.4136C23.6065 16.0261 22.4466 18.4644 20.6153 20.3533C18.7839 22.2421 16.3826 23.4767 13.7808 23.8671C11.1791 24.2575 8.5211 23.7821 6.216 22.514L1.5504 23.9348C1.3423 23.9982 1.12088 24.0039 0.909824 23.9511C0.69877 23.8984 0.506021 23.7893 0.352195 23.6354C0.198369 23.4816 0.0892524 23.2889 0.0365166 23.0778C-0.0162193 22.8668 -0.0105904 22.6453 0.0528012 22.4372L1.4736 17.7644C0.505835 15.9963 -0.000955364 14.0129 1.35205e-06 11.9972ZM12 2.39726C10.2958 2.39711 8.62238 2.8506 7.15147 3.71115C5.68056 4.5717 4.46523 5.80828 3.63031 7.29388C2.79539 8.77949 2.37097 10.4606 2.40065 12.1645C2.43033 13.8683 2.91304 15.5336 3.7992 16.9892C3.88716 17.1338 3.94355 17.2954 3.96464 17.4634C3.98574 17.6313 3.97107 17.8018 3.9216 17.9636L3.0024 20.9852L6.0192 20.066C6.18158 20.0166 6.35261 20.0021 6.52099 20.0236C6.68937 20.0451 6.85127 20.1021 6.996 20.1908C8.26123 20.9633 9.68816 21.4323 11.165 21.561C12.6418 21.6897 14.1283 21.4747 15.5081 20.9327C16.8879 20.3908 18.1234 19.5367 19.1179 18.4373C20.1123 17.3379 20.8387 16.0232 21.24 14.5962C21.6413 13.1691 21.7067 11.6685 21.431 10.212C21.1554 8.75546 20.5461 7.38255 19.6511 6.20087C18.756 5.01918 17.5994 4.06083 16.272 3.40093C14.9446 2.74102 13.4824 2.39749 12 2.39726Z" fill="black"/>
</svg>
