<svg width="24" height="24" viewBox="0 0 24 24" fill="none" xmlns="http://www.w3.org/2000/svg">
<path d="M2.4 24V21.8182H21.6V24H2.4ZM2.4 2.18182V0H21.6V2.18182H2.4ZM12 13.0909C13 13.0909 13.85 12.7727 14.55 12.1364C15.25 11.5 15.6 10.7273 15.6 9.81818C15.6 8.90909 15.25 8.13636 14.55 7.5C13.85 6.86364 13 6.54545 12 6.54545C11 6.54545 10.15 6.86364 9.45 7.5C8.75 8.13636 8.4 8.90909 8.4 9.81818C8.4 10.7273 8.75 11.5 9.45 12.1364C10.15 12.7727 11 13.0909 12 13.0909ZM2.4 20.7273C1.74 20.7273 1.1752 20.5138 0.7056 20.0869C0.236 19.66 0.0008 19.1462 0 18.5455V5.45455C0 4.85455 0.2352 4.34109 0.7056 3.91418C1.176 3.48727 1.7408 3.27345 2.4 3.27273H21.6C22.26 3.27273 22.8252 3.48655 23.2956 3.91418C23.766 4.34182 24.0008 4.85527 24 5.45455V18.5455C24 19.1455 23.7652 19.6593 23.2956 20.0869C22.826 20.5145 22.2608 20.728 21.6 20.7273H2.4ZM4.5 18.5455H19.5C18.6 17.5273 17.51 16.7273 16.23 16.1455C14.95 15.5636 13.54 15.2727 12 15.2727C10.46 15.2727 9.05 15.5636 7.77 16.1455C6.49 16.7273 5.4 17.5273 4.5 18.5455Z" fill="gray"/>
</svg>
