<svg width="24" height="24" viewBox="0 0 24 24" fill="none" xmlns="http://www.w3.org/2000/svg">
<path d="M24 19.1992C23.9998 21.8006 18.5054 23.999 12 23.999C5.49459 23.999 0.00015845 21.8006 0 19.1992V15.5996C0.000472479 18.2009 5.49478 20.3994 12 20.3994C18.5052 20.3994 23.9995 18.2009 24 15.5996V19.1992ZM24 13.1992C23.9997 15.8006 18.5053 17.999 12 17.999C5.49469 17.999 0.000314376 15.8006 0 13.1992V9.59961C0.000628394 12.2009 5.49487 14.3994 12 14.3994C18.5051 14.3994 23.9994 12.2009 24 9.59961V13.1992ZM12 0C18.5055 0 24 2.19833 24 4.7998V7.19922C24 9.8007 18.5055 11.999 12 11.999C5.4945 11.999 0 9.8007 0 7.19922V4.7998C0 2.19833 5.4945 0 12 0Z" fill="black"/>
</svg>
