<svg width="27" height="27" viewBox="0 0 27 27" fill="none" xmlns="http://www.w3.org/2000/svg">
<path d="M9.8004 15.8018L9.7932 15.7878C9.64835 15.7592 9.50431 15.7279 9.3612 15.6938L9.3504 15.6908C7.98154 15.3628 6.7174 14.7852 5.6496 13.9997C4.47527 13.1364 3.57218 12.0468 3.01909 10.8259C2.466 9.60499 2.27969 8.28988 2.47641 6.99521C2.67314 5.70054 3.24692 4.46563 4.14772 3.39816C5.04853 2.33069 6.24901 1.46306 7.6445 0.870934C9.03999 0.278807 10.5881 -0.0198439 12.1539 0.00102298C13.7196 0.0218898 15.2555 0.361641 16.6275 0.990651C17.9996 1.61966 19.1662 2.51883 20.0256 3.60976C20.8849 4.7007 21.4111 5.95026 21.558 7.24951C21.6048 7.66252 21.198 7.99953 20.7 7.99953C20.2032 7.99953 19.806 7.66252 19.7484 7.25051C19.5898 6.11377 19.0738 5.03207 18.2527 4.11478C17.4316 3.19748 16.3345 2.47709 15.0722 2.02644C13.8099 1.57578 12.4272 1.41083 11.0639 1.54827C9.7006 1.6857 8.40499 2.12065 7.30806 2.80913C6.21113 3.49762 5.35175 4.41524 4.81679 5.46924C4.28184 6.52324 4.09028 7.67626 4.26146 8.81173C4.43265 9.94721 4.96053 11.0249 5.79173 11.9359C6.62293 12.8468 7.72799 13.5588 8.9952 13.9997L9.0432 14.0167C9.2832 14.0987 9.5296 14.171 9.7824 14.2337C9.9948 13.806 10.3786 13.4529 10.8685 13.2347C11.3583 13.0165 11.9238 12.9466 12.4686 13.0369C13.0133 13.1273 13.5036 13.3724 13.8558 13.7303C14.208 14.0882 14.4003 14.5369 14.4 14.9997C14.4005 15.4594 14.2111 15.9052 13.8635 16.2621C13.5159 16.619 13.0314 16.8652 12.4915 16.9593C11.9516 17.0535 11.3893 16.9898 10.8992 16.7789C10.4091 16.5681 10.021 16.223 9.8004 15.8018ZM8.6172 17.0738C6.48545 16.5213 4.59527 15.4593 3.1812 14.0197C2.30486 14.1052 1.49672 14.456 0.910273 15.0054C0.323821 15.5548 -0.000108593 16.2645 2.73079e-08 16.9998V17.7148C2.73079e-08 21.4329 5.052 24 12 24C18.948 24 24 21.2919 24 17.7148V16.9998C24 16.2041 23.6207 15.441 22.9456 14.8784C22.2705 14.3158 21.3548 13.9997 20.4 13.9997H16.026C16.3091 14.7898 16.2484 15.6377 15.8546 16.3941C15.4608 17.1505 14.7592 17.7668 13.8735 18.1343C12.9878 18.5018 11.9749 18.5969 11.0133 18.4029C10.0517 18.2089 9.20311 17.7382 8.6172 17.0738ZM18 7.99953C18 6.48749 17.196 5.13245 15.9228 4.21542C15.284 3.75617 14.5361 3.41436 13.728 3.21229C12.9199 3.01022 12.0698 2.95245 11.2331 3.04274C10.3964 3.13303 9.592 3.36935 8.87233 3.73628C8.15266 4.10321 7.53394 4.59249 7.05655 5.1722C6.57916 5.7519 6.25385 6.40899 6.10183 7.10056C5.94982 7.79214 5.97453 8.50266 6.17435 9.18574C6.37417 9.86882 6.74461 10.5091 7.26148 11.0648C7.77835 11.6205 8.43004 12.0791 9.174 12.4107C9.94716 11.8245 10.9548 11.4997 12 11.4996C13.0456 11.4994 14.0537 11.8243 14.8272 12.4107C15.7859 11.9838 16.5875 11.348 17.1463 10.5711C17.7051 9.79417 18.0002 8.90534 18 7.99953Z" fill="white" stroke="blue"/>
</svg>
