<svg width="24" height="24" viewBox="0 0 24 24" fill="none" xmlns="http://www.w3.org/2000/svg">
<path d="M12 24C18.6276 24 24 18.6276 24 12C24 11.4444 23.1672 11.352 22.8804 11.8284C22.2687 12.8416 21.4344 13.7023 20.4408 14.3454C19.4472 14.9884 18.3203 15.3969 17.1454 15.5399C15.9705 15.6829 14.7785 15.5566 13.6597 15.1707C12.5408 14.7848 11.5244 14.1494 10.6875 13.3125C9.85065 12.4756 9.21518 11.4592 8.82927 10.3403C8.44335 9.22148 8.31712 8.02947 8.46012 6.8546C8.60312 5.67973 9.0116 4.5528 9.65464 3.55918C10.2977 2.56556 11.1584 1.73131 12.1716 1.1196C12.648 0.8316 12.5556 0 12 0C5.3724 0 0 5.3724 0 12C0 18.6276 5.3724 24 12 24Z" fill="#FFFDFD"/>
</svg>
